<?xml version="1.0" standalone="no"?>
<!DOCTYPE svg PUBLIC "-//W3C//DTD SVG 20010904//EN"
 "http://www.w3.org/TR/2001/REC-SVG-20010904/DTD/svg10.dtd">
<svg version="1.0" xmlns="http://www.w3.org/2000/svg"
 width="300.000000pt" height="300.000000pt" viewBox="0 0 300.000000 300.000000"
 preserveAspectRatio="xMidYMid meet">
<metadata>
Created by potrace 1.14, written by Peter Selinger 2001-2017
</metadata>
<g transform="translate(0.000000,300.000000) scale(0.100000,-0.100000)"
fill="#000000" stroke="none">
<path d="M1368 2995 c-1 -1 -30 -6 -63 -10 -33 -3 -80 -11 -105 -17 -25 -5
-55 -12 -67 -14 -74 -14 -319 -112 -354 -141 -8 -7 -19 -13 -23 -13 -25 0
-222 -150 -315 -240 -201 -193 -359 -494 -418 -795 -26 -135 -23 -416 5 -551
44 -205 119 -388 227 -549 116 -173 306 -355 475 -453 87 -51 277 -135 330
-147 8 -2 42 -11 75 -19 193 -51 467 -57 665 -16 593 124 1046 578 1171 1175
29 141 33 421 6 555 -24 123 -22 118 -57 221 -138 411 -474 762 -878 917 -81
32 -256 77 -332 87 -50 7 -336 15 -342 10z m297 -456 c28 -5 57 -11 65 -13
187 -39 379 -146 524 -292 147 -148 255 -363 286 -570 12 -79 15 -247 5 -294
-3 -14 -8 -45 -11 -70 -3 -25 -10 -53 -15 -63 -6 -9 -7 -17 -5 -17 5 0 -28
-92 -60 -168 l-15 -36 -22 31 c-20 29 -137 116 -146 108 -1 -2 7 -14 19 -27
27 -28 50 -79 50 -110 -1 -38 -34 -101 -78 -144 -55 -56 -115 -96 -235 -154
-165 -80 -248 -103 -515 -145 -65 -10 -211 -20 -379 -25 -74 -3 -88 0 -138 26
-30 16 -55 31 -55 34 0 3 69 5 153 6 146 0 334 9 387 19 14 2 48 6 75 9 225
25 473 119 633 241 85 66 116 108 108 154 -10 65 -82 112 -275 177 -116 40
-165 71 -155 98 7 19 95 62 147 71 39 8 53 26 15 20 -13 -2 -45 -6 -73 -10
-146 -18 -246 -57 -274 -106 -13 -24 -13 -29 2 -53 24 -35 153 -97 252 -120
91 -21 175 -66 175 -95 0 -20 -46 -64 -93 -87 -45 -23 -193 -66 -272 -80 -116
-19 -147 -23 -200 -29 -33 -3 -73 -8 -90 -10 -92 -12 -326 -25 -541 -30 l-181
-4 -25 27 c-55 62 -81 57 315 60 199 2 364 5 366 7 2 2 -10 7 -25 10 -125 26
-256 84 -479 212 -186 107 -260 129 -370 112 -16 -2 -30 1 -31 6 0 6 -6 37
-13 70 -40 179 -26 384 36 560 126 353 419 609 783 685 94 20 293 25 375 9z"/>
<path d="M1979 2247 c-220 -110 -327 -257 -344 -475 -4 -45 -5 -82 -2 -82 3 0
24 37 47 83 87 169 216 340 352 465 32 28 52 52 45 52 -7 0 -51 -19 -98 -43z"/>
<path d="M1125 2157 c44 -190 87 -268 223 -406 115 -118 159 -184 164 -249 4
-50 16 -48 23 3 16 101 -7 172 -102 320 -50 77 -115 205 -104 205 9 0 83 -79
128 -137 57 -75 100 -177 102 -242 1 -31 12 -20 18 16 29 198 -39 361 -187
447 -56 33 -148 71 -192 80 -13 3 -37 8 -54 11 l-32 7 13 -55z"/>
<path d="M765 1881 c1 -66 5 -123 8 -128 3 -5 8 -29 12 -53 10 -66 61 -183
110 -248 90 -121 216 -212 395 -282 l50 -20 0 28 c-1 69 -62 227 -108 278 -9
11 -29 35 -43 54 -15 19 -55 65 -89 103 -34 37 -59 67 -56 67 11 0 122 -95
169 -144 128 -135 238 -368 263 -556 17 -127 25 4 10 155 -10 91 -34 217 -57
292 -61 196 -154 303 -326 372 -174 71 -238 107 -305 174 -15 15 -29 27 -32
27 -2 0 -3 -54 -1 -119z"/>
<path d="M2137 1924 c-1 -1 -22 -5 -47 -8 -193 -24 -362 -163 -461 -381 -31
-68 -73 -205 -83 -269 -4 -22 -9 -48 -11 -60 -9 -38 -15 -99 -21 -218 -6 -111
-5 -118 12 -118 38 0 43 13 45 124 1 59 5 124 9 144 5 21 11 55 15 77 27 184
170 402 350 535 81 60 85 63 199 120 55 28 97 51 95 51 -8 3 -100 5 -102 3z"/>
</g>
</svg>
